<svg xmlns="http://www.w3.org/2000/svg" shape-rendering="crispEdges" viewBox="0 -0.5 24 24"><path stroke="rgba(255,255,255,0.7686274509803922)" d="M11 3h1m0 1h1m-2 1h1M4 6h1m4 0h1m9 1h1M8 8h1m6 0h1M6 9h1m3 0h1m5 0h1M5 10h1m2 0h1m8 0h1M4 11h1m2 0h1m2 0h1m7 0h1M7 12h1m5 0h1M4 13h2m0 1h1m9 0h2M7 15h2m5 0h1M5 16h1m-3 1h1m5 0h1m8 1h1m-7 1h1"/><path stroke="#fff" d="M11 4h1m-2 1h1m1 0h1M5 6h1m4 0h1m2 0h1M4 7h1m1 0h1m10 0h2M4 8h1m4 0h6m4 0h1M7 9h3m1 0h2m1 0h2m2 0h1M6 10h2m3 0h3m1 0h2M5 11h2m4 0h3m2 0h2M4 12h3m3 0h3m4 0h3M6 13h3m1 0h3m2 0h4M7 14h9M4 15h1m4 0h5M3 16h1m14 0h1M4 17h1m8 0h1m2 0h1m1 0h1m-9 1h1m1 0h1m4 0h1m-7 1h1"/></svg>